<svg viewBox="0 0 60 60" xmlns="http://www.w3.org/2000/svg">
  <g id="Page-1" fill="none" fill-rule="evenodd">
    <g id="045---Drink" fill-rule="nonzero">
      <g id="Icons" transform="translate(1 1)">
        <path id="water-fill-top" d="m57.57 44.53-9 7.22c-.468759.3884094-1.1599816.3399798-1.57-.11l-12.54-13.26c-.2185399-.230632-.3309149-.5420035-.310032-.859044.0208829-.3170406.1731288-.6109819.420032-.810956l.67-.53c5.32-.21 7.12 2.43 11.49 3.56 2.72.7 5.46-.91 7.28-2.38l3.8 5.64c.3318646.4944108.2273094 1.1609498-.24 1.53z" fill="#02a9f4" class="water-fill-part"/>
        <path id="water-fill-bottom" d="m57.81 43-3.81-5.64c-.6294648.5176775-1.2981372.9857482-2 1.4l2.81 4.24c.3256043.492387.2214725 1.1518883-.24 1.52l-8.13 6.48.57.6c.4066053.4315951 1.0761792.4794218 1.54.11l9-7.22c.4511079-.3593845.5627314-.9990731.26-1.49z" fill="#0377bc" class="water-fill-part"/>
        <path id="glass-fill" d="m54 37.36c-1.82 1.47-4.56 3.08-7.28 2.38-4.37-1.13-6.17-3.77-11.49-3.56l10.77-8.58c.2467965-.1997196.5662259-.2864043.8801278-.2388434s.5933156.2249794.7698722.4888434z" fill="#f5f5f5" class="glass-fill-part"/>
        <path id="shadow-fill" d="m47.62 27.85c-.1765782-.2546929-.4500129-.4256841-.7563038-.4729512-.306291-.0472671-.6185524.0333388-.8636962.2229512l-1 .79 6 9c-1.2808955 1.0846543-2.7770894 1.8855781-4.39 2.35h.11c2.72.7 5.46-.91 7.28-2.38z" fill="#cfd8dc" class="shadow-fill-part"/>
        <path id="head-skin-fill" d="m29.5 31.24c.016234.6618493.232373 1.303294.62 1.84.93 1.23 1.79 1.8 1.38 2.34s-1.56 1.84-1.56 1.84 1.63 1.38 1 2c-.75.81-1.82 1.34-1.87 2.59-.08 1.8 1.46 2.29 1.06 5.38-.0648194 1.7446309-1.5042067 3.1220138-3.25 3.11-3.6123849-.1336482-7.2145806-.467494-10.79-1-2.28 1.67-3.22 5.29-3.6 7.73-.0792284.4890578-.5046072.846376-1 .84h-10.49c-.55228475 0-1-.4477153-1-1v-55.91c0-.55228475.44771525-1 1-1h16.84c.6312706-.00552097 1.2280908.28732872 1.61.79.3.42.59.84.86 1.28.7440586 1.24162441 1.4119569 2.5273286 2 3.85 1 2.14 3.09 4.1 3.18 5.4.12 1.66-2.15 2.86-1.82 4.53.0984255.3713312.2834864.7140364.54 1 2.0582949 2.703985 4.405522 5.1752798 7 7.37 2.49 2 2.16 2.59.93 4-.86.84-2.66 1.71-2.64 3.02z" fill="#ffe0b2" class="head-fill-part"/>
      </g>
      <g id="Icons_copy" fill="#000">
        <path id="outline-main" d="m49.45 28.29c-.3333801-.4961459-.859075-.8302457-1.4498286-.9214231s-1.1927169.0688787-1.6601714.4414231l-11.34 9.12c-.4681946.3719185-.7585027.9235039-.8 1.52-.0381713.5968538.1716835 1.1829999.58 1.62l12.51 13.26c.7593032.8109843 2.0158891.8982473 2.88.2l9-7.22c.8622499-.6972237 1.0528069-1.9358445.44-2.86zm-1.86 1.09c.029382-.0086113.060618-.0086113.09 0 .0391613.0006492.0743387.0241008.09.06l5.86 8.72c-1.57 1.11-3.63 2.13-5.63 1.61-1.3899773-.3879607-2.7317846-.9313926-4-1.62-1.5849271-.8826896-3.304724-1.4976269-5.09-1.82zm10.41 15.37-9 7.22c-.0520493.0436826-.1279507.0436826-.18 0l-12.64-13.28c-.0145505-.0317455-.0145505-.0682545 0-.1.0020559-.0388306.0201691-.0750569.05-.1l.39-.31c2.2891496-.0122108 4.5388425.5960011 6.51 1.76 1.3880442.7544219 2.8575195 1.3482509 4.38 1.77.5227286.1340657 1.0603546.2012689 1.6.2 2.0679046-.112642 4.0525324-.8520815 5.69-2.12l3.2 4.78c.0436826.0520493.0436826.1279507 0 .18z"/>
        <path id="outline-body" d="m2 60h10.52c.9940267.0120028 1.8459871-.7079037 2-1.69.29-1.89 1.06-5.21 2.9-6.83 3.4812551.488723 6.9863549.7891601 10.5.9 2.259133.0240736 4.1325444-1.7432956 4.24-4 .2290695-1.4020793-.0025031-2.8406362-.66-4.1-.2502891-.4135237-.3849764-.8866562-.39-1.37 0-.48.33-.77.91-1.29.2419899-.2071131.4723415-.4274495.69-.66.288321-.3064729.433617-.7205664.4-1.14-.0882596-.6070457-.3604891-1.1724456-.78-1.62.35-.41.76-.9 1-1.2.78-1 0-2-.67-2.68-.21-.25-.46-.53-.72-.87-.2581425-.3665173-.4009128-.8017925-.41-1.25 0-.42.7-1 1.27-1.45.3598151-.280246.694424-.5914323 1-.93.7170208-.6063448 1.1513459-1.4822337 1.2-2.42-.08-1-.91-1.9-2.23-3-2.5123349-2.1423799-4.7825303-4.5534146-6.77-7.19-.1476434-.1616765-.2660714-.3477777-.35-.55-.08-.42.22-.87.72-1.58.7066593-.7747472 1.1050866-1.7814876 1.12-2.83-.2705155-1.1910947-.8420659-2.29287863-1.66-3.2-.6285956-.79648636-1.1810199-1.65023299-1.65-2.55l-.18-.41c-.538206-1.21898547-1.1493114-2.4044633-1.83-3.55-.29-.46-.59-.9-.91-1.34-.5707737-.76107546-1.4686964-1.20632639-2.42-1.2h-16.84c-1.1045695 0-2 .8954305-2 2v56c0 1.1045695.8954305 2 2 2zm0-58.00011742 16.84.00011742c.311279-.00476488.6070209.1357125.8.38.29.4.56.8.82 1.22.6392694 1.07304123 1.2103975 2.18523795 1.71 3.33l.19.41c.5149238 1.0128028 1.1207442 1.97676005 1.81 2.88.5470848.6451942.9799734 1.3790756 1.28 2.17-.0877405.5726419-.3455581 1.1056973-.74 1.53-.7742827.8297964-1.1596167 1.949446-1.06 3.08.1267336.5267629.3808352 1.0143632.74 1.42 2.0940129 2.7720562 4.4774703 5.3130698 7.11 7.58 1.36 1.11 1.49 1.49 1.5 1.59s-.5.73-.69.95c-.2471286.247919-.5110904.478468-.79.69-.91.73-2 1.64-2 3.06.0225715.8679082.308558 1.7084295.82 2.41.29.38.57.7.81 1s.26.29.36.42c-.39.49-1 1.22-1.3 1.52-.1776387.2000887-.2676837.4630201-.25.73.0193626.2676441.1454804.5162762.35.69.2812024.2332994.5270935.5061375.73.81l-.34.31c-.9042016.6241978-1.4862159 1.6161845-1.59 2.71-.0104835.8072946.1894066 1.6034087.58 2.31.4955516.9166137.6681516 1.9733482.49 3-.0217395 1.234157-1.0256627 2.2247538-2.26 2.23-3.5672602-.127775-7.1254274-.4415345-10.66-.94l-3.19-.49-2.07-.24c-5.28-.53-6.66-2.15-6.9-3.42-.10120844-.5400738-.61921153-.8973173-1.16-.8-.54007377.1012084-.89731728.6192115-.8 1.16.52 2.83 3.43 4.53 8.66 5l2 .26 1.19.16c-1.33453 2.076294-2.1791796 4.4290021-2.47 6.88h-10.52z"/>
      </g>
    </g>
  </g>
</svg>
